<?xml version="1.0" encoding="UTF-8"?><svg id="Layer_2" xmlns="http://www.w3.org/2000/svg" viewBox="0 0 388.69 146.3"><defs><style>.cls-1{font-size:26.83px;}.cls-1,.cls-2,.cls-3,.cls-4,.cls-5{stroke:#026634;}.cls-1,.cls-3,.cls-4{fill:#026634;}.cls-1,.cls-4{font-family:Georgia, Georgia;}.cls-2{fill:#fff;stroke-width:1.88px;}.cls-2,.cls-3{stroke-miterlimit:10;}.cls-4{font-size:54.62px;}.cls-5{fill:#1d1d1b;font-family:AdobeArabic-Regular, 'Adobe Arabic';font-size:24px;}</style></defs><g id="Layer_1-2"><ellipse class="cls-2" cx="72.61" cy="73.15" rx="71.67" ry="72.21"/><path id="_" class="cls-3" d="M5.92,73.31c0,37.01,29.81,67.11,66.45,67.11s66.45-30.11,66.45-67.11S109.01,6.2,72.37,6.2,5.92,36.3,5.92,73.31Zm7.94-6.58h8.37l-6.52,6.58,6.52,6.58H13.86c-.27-2.29-.42-4.22-.42-6.58s.15-4.29,.42-6.58ZM33.35,30.69l3.32-1.93,4.16,7.29-1.09,4.13-4.04,1.09-8.28-4.82,1.97-3.44,3.97-2.31Zm74.09-5.18l-4.1,7.15-2.4-9.05-8.84,2.39,4.12-7.1c3.99,1.79,7.76,4.01,11.22,6.61Zm23.86,47.79c0,2.23-.13,4.42-.37,6.58h-8.1l6.52-6.58-6.52-6.58h8.1c.24,2.16,.37,4.36,.37,6.58Zm-114.89-9.15v-8.45l1.96-3.43,8.28,4.83,1.08,4.07-2.95,2.98h-8.37Zm9.75-25.5l6.09,3.55-8.9,2.41,2.39,9.01-6.09-3.55,6.52-11.41Zm30.5-3.06l3.06-3.09-1.36-2.39,2.94,.79,2.19-2.21v2.8l4.15,1.12-4.15,1.12v5.36l-2.65-4.64-4.18,1.13Zm42.5-8.84l2.4,9.05-1.66,2.9-6.55-1.77-4.74-4.79,1.71-2.99,8.85-2.39Zm9.34,2.05l7.2,4.2h.01l1.96,3.44-8.28,4.83-4.04-1.09-1.06-4.01,4.21-7.35Zm7.39,37.92h3.37l6.52,6.58-6.52,6.58h-3.37l-1.75-6.58,1.75-6.58Zm-59.32,52.91l3.97-1.08,2.96,2.99v9.65h-3.92l-7.21-4.21,4.2-7.36Zm-10.63,.22l-2.37-8.94,1.71-2.99,6.48,1.75,4.8,4.84-1.66,2.9-8.95,2.42Zm-16.55-6.26l-.12-.21-1.84-3.22,8.28-4.83h.05l3.98,1.09,1.09,4.12-4.16,7.29-7.29-4.25Zm2.37-24.11l4.77,4.82,1.75,6.58-2.92,1.7-8.9-2.41,2.38-8.99,2.92-1.7Zm16.61-22.77h9.97l1.85,3.24-3.21,1.87-8.76-5.11h.16Zm-5.21,0l11.29,6.58-11.28,6.58h-7.83l-1.75-6.58,1.75-6.58h7.82Zm13.82,8.06l3.21,1.87-1.84,3.23h-10.13l8.76-5.11Zm6.66,.94l-4.14-2.41,4.14-2.41-2.38-4.18h4.77v-4.82l4.13,2.41,2.39-4.18,2.38,4.18,4.13-2.41v4.82h4.78l-2.39,4.17,4.13,2.41-4.13,2.41,2.38,4.17h-4.77v4.82l-4.13-2.41-2.38,4.18-2.39-4.18-4.13,2.41v-4.82h-4.77l2.38-4.17Zm-23.38-13.64l-3.2-1.87,1.75-6.58,4.77-4.82,6.82,3.98,6.49,11.37h-13.05l-3.58-2.08h0Zm-8.5-4.96l-2.91-1.7-2.39-9,8.9-2.41,2.92,1.7-1.75,6.58-4.77,4.82Zm23.01-1.79l8.73,5.09v3.74h-3.7l-5.03-8.83Zm46.36-13.65l1.37-2.38,.79,2.97,2.99,.81-2.4,1.4,1.11,4.19-3.04-3.07-4.59,2.68,2.73-4.77-3.13-2.96,4.18,1.13Zm24.33,8.38l-6.09,3.55,2.39-9-8.91-2.41,6.09-3.55,6.52,11.41Zm-12.11,7.06l-4.77-4.82-1.75-6.58,2.92-1.7,8.9,2.41-2.39,8.99-2.92,1.7Zm-5.3,3.09l-6.77,3.95h-13.03l6.54-11.41,6.74-3.93,4.77,4.82,1.75,6.58Zm3.47,13.09l-1.75,6.58h-7.86l-11.26-6.58,11.29-6.59h7.83l1.75,6.58Zm13.92,23.28l-6.52,11.41-6.12-3.58,8.96-2.43-2.37-8.95,6.05,3.54Zm-22.15,7.75l-.8,3.02-1.39-2.43-4.15,1.12,3.04-3.07h.01l-2.67-4.65,4.6,2.69,3.06-3.09-1.12,4.22,2.37,1.38-2.95,.8Zm-4.12,15.52l-8.9-2.41-1.68-2.94,4.75-4.79h.02l.02-.03,6.49-1.76,1.68,2.95-2.38,8.99Zm-33.13,11.35v-7.1l6.52,6.59,6.52-6.59v7.1h-13.05Zm-7.66-14.71l1.36-2.39-3.06-3.09,4.18,1.13,2.65-4.64v5.36l4.15,1.12-4.15,1.12v2.8l-2.19-2.21-2.94,.8Zm1.25-7.34l-6.55-1.77-4.75-4.8,3.93-6.89,11.25-6.56v13.21l-3.88,6.81Zm-16.98-1.74l-.82-3.07-2.99-.81,2.42-1.34-1.13-4.25,3.04,3.07,4.69-2.73-2.76,4.84,3.07,2.95-4.11-1.11-1.41,2.47Zm12.21-16.17h0l-.08,.04,5.04-8.83h3.7v3.74l-8.65,5.05Zm30.08-14.58l3.2-1.87,8.73,5.1h-10.08l-1.85-3.23Zm33.72,23.53l-8.95,2.42-2.88-1.68,1.75-6.61,4.75-4.79,2.95,1.72,2.37,8.94Zm-12.35-7.2l-2.61,2.64h0l-2.18,2.2-6.73-3.93-6.54-11.44h12.99l6.81,3.98-1.74,6.55Zm-20.89,21.1l1.39,2.43-2.99-.81-2.19,2.21v-2.8l-4.15-1.12,4.15-1.12v-5.41l2.68,4.69,4.15-1.12-3.04,3.07Zm-19.37-11.04l6.52-11.44,6.51,11.38v7.9l-6.52,1.76-6.52-1.76v-7.85Zm13.04-15.37v10.2h0l-5.05-8.83,1.85-3.24,3.21,1.87Zm17.73,14.89l-4.77,4.82-6.52,1.76-3.91-6.85v-13.15l11.31,6.61,3.89,6.81Zm-11.5-20.11l5.07,8.87-8.77-5.12v-3.75h3.7Zm-14.22,6.59l-5.06,8.87v-10.24l3.21-1.87,1.85,3.24Zm-5.05,28.03l6.49-1.76h.07l6.48,1.76v3.4l-6.52,6.58-6.52-6.58v-3.4Zm15.57,4.47l2.96-2.99,4.03,1.09,4.18,7.32-7.26,4.23h-3.91v-9.65Zm32.34-39.09h2.78l-2.19,2.21,.81,3.06-2.44-1.42-3.01,3.04,1.07-4.18-4.65-2.71h5.41l1.11-4.19,1.11,4.19Zm-32.33-22.03l8.79-5.12-5.08,8.86h-3.71v-3.73Zm-5.74,.39l-1.85-3.24,5.05-8.81v10.18l-3.2,1.87Zm10.91,5.91h10.11l-8.76,5.11-3.2-1.87,1.85-3.24Zm5.25-27.5l4.79,4.84-3.89,6.79-11.32,6.6v-13.12l3.94-6.87,6.49,1.75Zm-19.47,15.78l-6.53-11.44v-7.85l6.52-1.76,6.52,1.76v7.93l-6.51,11.36Zm-1.47,2.57l-1.86,3.24-3.21-1.87v-10.24l5.06,8.87Zm-14.21,24.87l-6.49,11.37-6.81,3.97-4.77-4.82-1.75-6.58,6.77-3.95h13.05Zm-33.53,19.55l8.91,2.41-6.09,3.55-6.52-11.41,6.09-3.55-2.39,9Zm72.84,25.73l-4.13-7.14,8.9,2.41,2.38-8.99,4.07,7.12c-3.47,2.6-7.23,4.81-11.23,6.6Zm19.53-14.14l-7.26,4.23-4.18-7.32,1.08-4.07,3.99-1.08,8.3,4.85-1.93,3.38Zm12.96-31.14v8.46l-1.98,3.46-8.24-4.82-1.09-4.13,2.95-2.98h8.37Zm-14.74-18.3l-1.11,4.19-1.11-4.19h-5.36l4.44-2.59v-.11l-.91-4.2,3.04,3.07,2.4-1.4-.8,3.02,2.19,2.21h-2.78Zm-30.14-33.25l3.04-.82-1.41,2.47,3.01,3.04-4.12-1.11-2.71,4.73v-5.47l-4.15-1.12,4.15-1.12v-2.8l2.19,2.21Zm-4.73-1.38l-6.52,1.76-6.52-1.76v-3.4l6.52-6.58,6.52,6.58v3.4Zm-15.57,14.72v13.21l-11.25-6.56-3.93-6.88,4.75-4.8,6.55-1.77,3.88,6.8Zm-19.45-2.59l4.11-1.11-3.07,2.95,2.76,4.84-4.69-2.74-3.03,3.07,1.11-4.19-2.41-1.4,3-.81,.81-3.07,1.41,2.47Zm-12.88,22.49h-2.78l2.19-2.21-.8-3.02,2.4,1.4,3.04-3.07-1.1,4.2,4.62,2.7h-5.35l-1.11,4.19-1.11-4.19Zm-1.95,2.57l1.75,6.58-1.75,6.58h-3.37l-6.52-6.58,6.52-6.58h3.37Zm3.02,11.69l1.15,4.03h5.36l-4.64,2.71,1.11,4.19-3.04-3.07-2.4,1.4,.8-3.02-2.19-2.21h2.78l1.07-4.03Zm-7.44,4.03l2.95,2.98-1.08,4.08-8.28,4.83-1.93-3.38-.03-.06v-8.45h8.38Zm12.84,38.88l4.14-7.26,2.37,8.93,8.96-2.42-4.21,7.3c-4-1.77-7.78-3.97-11.26-6.54Zm82.68-57.17l-2.95-2.98,1.08-4.08,8.28-4.83,1.93,3.38,.02,.04v8.46h-8.37Zm-27.49-44.5l-4.17,7.28-4.09,1.11-2.96-2.99V15.41h3.92l7.29,4.25Zm-13.74,2.85l-6.52-6.59-6.52,6.59v-7.1h13.05v7.1Zm-15.57-7.1v9.65l-2.96,2.99-3.97-1.08-4.2-7.36,7.2-4.2h3.93Zm-8.61,13.77l1.66,2.9-4.8,4.84-6.48,1.75-1.7-2.99,2.37-8.94,8.95,2.42Zm-1.79-3.14l-8.96-2.42-2.37,8.93-4.14-7.26c3.5-2.59,7.28-4.79,11.3-6.56l4.17,7.31Z"/><text class="cls-4" transform="translate(164.82 111.32) scale(1.03 1)"><tspan x="0" y="0">Mamluk.</tspan></text><text class="cls-1" transform="translate(151.79 58.59) scale(.96 1)"><tspan x="0" y="0">Kipchak</tspan></text><text class="cls-5" transform="translate(250.35 59.73)"><tspan x="0" y="0">by</tspan></text></g></svg>